<mxfile host="app.diagrams.net" modified="2021-01-13T18:47:48.765Z" agent="5.0 (Windows NT 10.0; Win64; x64) AppleWebKit/537.36 (KHTML, like Gecko) Chrome/87.0.4280.141 Safari/537.36" etag="cp0OOWuRqQHxP4k9lO1M" version="14.1.9" type="github">
  <diagram id="C5RBs43oDa-KdzZeNtuy" name="Page-1">
    <mxGraphModel dx="1695" dy="482" grid="1" gridSize="10" guides="1" tooltips="1" connect="1" arrows="1" fold="1" page="1" pageScale="1" pageWidth="827" pageHeight="1169" math="0" shadow="0">
      <root>
        <mxCell id="WIyWlLk6GJQsqaUBKTNV-0" />
        <mxCell id="WIyWlLk6GJQsqaUBKTNV-1" parent="WIyWlLk6GJQsqaUBKTNV-0" />
        <mxCell id="GPTz1_Q5hdU3rCjX2nhV-0" value="Case&#xa;" style="swimlane;fontStyle=1;align=center;verticalAlign=top;childLayout=stackLayout;horizontal=1;startSize=26;horizontalStack=0;resizeParent=1;resizeParentMax=0;resizeLast=0;collapsible=1;marginBottom=0;rounded=0;sketch=0;" parent="WIyWlLk6GJQsqaUBKTNV-1" vertex="1">
          <mxGeometry x="460" y="40" width="160" height="34" as="geometry" />
        </mxCell>
        <mxCell id="GPTz1_Q5hdU3rCjX2nhV-2" value="" style="line;strokeWidth=1;fillColor=none;align=left;verticalAlign=middle;spacingTop=-1;spacingLeft=3;spacingRight=3;rotatable=0;labelPosition=right;points=[];portConstraint=eastwest;" parent="GPTz1_Q5hdU3rCjX2nhV-0" vertex="1">
          <mxGeometry y="26" width="160" height="8" as="geometry" />
        </mxCell>
        <mxCell id="GPTz1_Q5hdU3rCjX2nhV-6" value="1" style="endArrow=open;html=1;endSize=12;startArrow=diamondThin;startSize=14;startFill=1;edgeStyle=orthogonalEdgeStyle;align=left;verticalAlign=bottom;strokeWidth=1;exitX=1;exitY=0.5;exitDx=0;exitDy=0;entryX=0;entryY=0.5;entryDx=0;entryDy=0;" parent="WIyWlLk6GJQsqaUBKTNV-1" target="GPTz1_Q5hdU3rCjX2nhV-0" edge="1">
          <mxGeometry x="-1" y="3" relative="1" as="geometry">
            <mxPoint x="180" y="57" as="sourcePoint" />
            <mxPoint x="490" y="66.5" as="targetPoint" />
          </mxGeometry>
        </mxCell>
        <mxCell id="GPTz1_Q5hdU3rCjX2nhV-7" value="Batiment&#xa;" style="swimlane;fontStyle=1;align=center;verticalAlign=top;childLayout=stackLayout;horizontal=1;startSize=26;horizontalStack=0;resizeParent=1;resizeParentMax=0;resizeLast=0;collapsible=1;marginBottom=0;rounded=0;sketch=0;" parent="WIyWlLk6GJQsqaUBKTNV-1" vertex="1">
          <mxGeometry x="190" y="294" width="120" height="34" as="geometry" />
        </mxCell>
        <mxCell id="GPTz1_Q5hdU3rCjX2nhV-9" value="" style="line;strokeWidth=1;fillColor=none;align=left;verticalAlign=middle;spacingTop=-1;spacingLeft=3;spacingRight=3;rotatable=0;labelPosition=right;points=[];portConstraint=eastwest;" parent="GPTz1_Q5hdU3rCjX2nhV-7" vertex="1">
          <mxGeometry y="26" width="120" height="8" as="geometry" />
        </mxCell>
        <mxCell id="GPTz1_Q5hdU3rCjX2nhV-11" value="Route&#xa;" style="swimlane;fontStyle=1;align=center;verticalAlign=top;childLayout=stackLayout;horizontal=1;startSize=26;horizontalStack=0;resizeParent=1;resizeParentMax=0;resizeLast=0;collapsible=1;marginBottom=0;rounded=0;sketch=0;" parent="WIyWlLk6GJQsqaUBKTNV-1" vertex="1">
          <mxGeometry x="930" y="390" width="110" height="34" as="geometry" />
        </mxCell>
        <mxCell id="GPTz1_Q5hdU3rCjX2nhV-13" value="" style="line;strokeWidth=1;fillColor=none;align=left;verticalAlign=middle;spacingTop=-1;spacingLeft=3;spacingRight=3;rotatable=0;labelPosition=right;points=[];portConstraint=eastwest;" parent="GPTz1_Q5hdU3rCjX2nhV-11" vertex="1">
          <mxGeometry y="26" width="110" height="8" as="geometry" />
        </mxCell>
        <mxCell id="GPTz1_Q5hdU3rCjX2nhV-19" value="Case non Batiment&#xa;" style="swimlane;fontStyle=1;align=center;verticalAlign=top;childLayout=stackLayout;horizontal=1;startSize=26;horizontalStack=0;resizeParent=1;resizeParentMax=0;resizeLast=0;collapsible=1;marginBottom=0;rounded=0;sketch=0;" parent="WIyWlLk6GJQsqaUBKTNV-1" vertex="1">
          <mxGeometry x="900" y="210" width="140" height="34" as="geometry" />
        </mxCell>
        <mxCell id="GPTz1_Q5hdU3rCjX2nhV-21" value="" style="line;strokeWidth=1;fillColor=none;align=left;verticalAlign=middle;spacingTop=-1;spacingLeft=3;spacingRight=3;rotatable=0;labelPosition=right;points=[];portConstraint=eastwest;" parent="GPTz1_Q5hdU3rCjX2nhV-19" vertex="1">
          <mxGeometry y="26" width="140" height="8" as="geometry" />
        </mxCell>
        <mxCell id="GPTz1_Q5hdU3rCjX2nhV-23" value="Trottoire&#xa;" style="swimlane;fontStyle=1;align=center;verticalAlign=top;childLayout=stackLayout;horizontal=1;startSize=20;horizontalStack=0;resizeParent=1;resizeParentMax=0;resizeLast=0;collapsible=1;marginBottom=0;rounded=0;sketch=0;" parent="WIyWlLk6GJQsqaUBKTNV-1" vertex="1">
          <mxGeometry x="1100" y="390" width="130" height="28" as="geometry" />
        </mxCell>
        <mxCell id="GPTz1_Q5hdU3rCjX2nhV-25" value="" style="line;strokeWidth=1;fillColor=none;align=left;verticalAlign=middle;spacingTop=-1;spacingLeft=3;spacingRight=3;rotatable=0;labelPosition=right;points=[];portConstraint=eastwest;" parent="GPTz1_Q5hdU3rCjX2nhV-23" vertex="1">
          <mxGeometry y="20" width="130" height="8" as="geometry" />
        </mxCell>
        <mxCell id="GPTz1_Q5hdU3rCjX2nhV-29" value="Extends" style="endArrow=block;endSize=16;endFill=0;html=1;strokeWidth=1;exitX=0.583;exitY=-0.029;exitDx=0;exitDy=0;exitPerimeter=0;entryX=0.538;entryY=0.875;entryDx=0;entryDy=0;entryPerimeter=0;" parent="WIyWlLk6GJQsqaUBKTNV-1" source="GPTz1_Q5hdU3rCjX2nhV-7" target="GPTz1_Q5hdU3rCjX2nhV-2" edge="1">
          <mxGeometry width="160" relative="1" as="geometry">
            <mxPoint x="330" y="170" as="sourcePoint" />
            <mxPoint x="490" y="170" as="targetPoint" />
          </mxGeometry>
        </mxCell>
        <mxCell id="GPTz1_Q5hdU3rCjX2nhV-30" value="Extends" style="endArrow=block;endSize=16;endFill=0;html=1;strokeWidth=1;exitX=0.5;exitY=0;exitDx=0;exitDy=0;entryX=0.75;entryY=1;entryDx=0;entryDy=0;" parent="WIyWlLk6GJQsqaUBKTNV-1" source="GPTz1_Q5hdU3rCjX2nhV-19" target="GPTz1_Q5hdU3rCjX2nhV-0" edge="1">
          <mxGeometry width="160" relative="1" as="geometry">
            <mxPoint x="610" y="170" as="sourcePoint" />
            <mxPoint x="640" y="90" as="targetPoint" />
          </mxGeometry>
        </mxCell>
        <mxCell id="GPTz1_Q5hdU3rCjX2nhV-36" value="Piege Trottoire&#xa;" style="swimlane;fontStyle=1;align=center;verticalAlign=top;childLayout=stackLayout;horizontal=1;startSize=26;horizontalStack=0;resizeParent=1;resizeParentMax=0;resizeLast=0;collapsible=1;marginBottom=0;rounded=0;sketch=0;" parent="WIyWlLk6GJQsqaUBKTNV-1" vertex="1">
          <mxGeometry x="1230" y="510" width="160" height="34" as="geometry" />
        </mxCell>
        <mxCell id="GPTz1_Q5hdU3rCjX2nhV-38" value="" style="line;strokeWidth=1;fillColor=none;align=left;verticalAlign=middle;spacingTop=-1;spacingLeft=3;spacingRight=3;rotatable=0;labelPosition=right;points=[];portConstraint=eastwest;" parent="GPTz1_Q5hdU3rCjX2nhV-36" vertex="1">
          <mxGeometry y="26" width="160" height="8" as="geometry" />
        </mxCell>
        <mxCell id="GPTz1_Q5hdU3rCjX2nhV-40" value="Piege Route&#xa;" style="swimlane;fontStyle=1;align=center;verticalAlign=top;childLayout=stackLayout;horizontal=1;startSize=26;horizontalStack=0;resizeParent=1;resizeParentMax=0;resizeLast=0;collapsible=1;marginBottom=0;rounded=0;sketch=0;" parent="WIyWlLk6GJQsqaUBKTNV-1" vertex="1">
          <mxGeometry x="890" y="567" width="160" height="34" as="geometry" />
        </mxCell>
        <mxCell id="GPTz1_Q5hdU3rCjX2nhV-42" value="" style="line;strokeWidth=1;fillColor=none;align=left;verticalAlign=middle;spacingTop=-1;spacingLeft=3;spacingRight=3;rotatable=0;labelPosition=right;points=[];portConstraint=eastwest;" parent="GPTz1_Q5hdU3rCjX2nhV-40" vertex="1">
          <mxGeometry y="26" width="160" height="8" as="geometry" />
        </mxCell>
        <mxCell id="GPTz1_Q5hdU3rCjX2nhV-44" value="Police&#xa;" style="swimlane;fontStyle=1;align=center;verticalAlign=top;childLayout=stackLayout;horizontal=1;startSize=26;horizontalStack=0;resizeParent=1;resizeParentMax=0;resizeLast=0;collapsible=1;marginBottom=0;rounded=0;sketch=0;" parent="WIyWlLk6GJQsqaUBKTNV-1" vertex="1">
          <mxGeometry x="1100" y="726" width="100" height="34" as="geometry" />
        </mxCell>
        <mxCell id="GPTz1_Q5hdU3rCjX2nhV-46" value="" style="line;strokeWidth=1;fillColor=none;align=left;verticalAlign=middle;spacingTop=-1;spacingLeft=3;spacingRight=3;rotatable=0;labelPosition=right;points=[];portConstraint=eastwest;" parent="GPTz1_Q5hdU3rCjX2nhV-44" vertex="1">
          <mxGeometry y="26" width="100" height="8" as="geometry" />
        </mxCell>
        <mxCell id="GPTz1_Q5hdU3rCjX2nhV-48" value="Nid de poule&#xa;" style="swimlane;fontStyle=1;align=center;verticalAlign=top;childLayout=stackLayout;horizontal=1;startSize=26;horizontalStack=0;resizeParent=1;resizeParentMax=0;resizeLast=0;collapsible=1;marginBottom=0;rounded=0;sketch=0;" parent="WIyWlLk6GJQsqaUBKTNV-1" vertex="1">
          <mxGeometry x="940" y="726" width="110" height="34" as="geometry" />
        </mxCell>
        <mxCell id="GPTz1_Q5hdU3rCjX2nhV-50" value="" style="line;strokeWidth=1;fillColor=none;align=left;verticalAlign=middle;spacingTop=-1;spacingLeft=3;spacingRight=3;rotatable=0;labelPosition=right;points=[];portConstraint=eastwest;" parent="GPTz1_Q5hdU3rCjX2nhV-48" vertex="1">
          <mxGeometry y="26" width="110" height="8" as="geometry" />
        </mxCell>
        <mxCell id="GPTz1_Q5hdU3rCjX2nhV-52" value="Feu rouge&#xa;" style="swimlane;fontStyle=1;align=center;verticalAlign=top;childLayout=stackLayout;horizontal=1;startSize=26;horizontalStack=0;resizeParent=1;resizeParentMax=0;resizeLast=0;collapsible=1;marginBottom=0;rounded=0;sketch=0;" parent="WIyWlLk6GJQsqaUBKTNV-1" vertex="1">
          <mxGeometry x="800" y="720" width="110" height="34" as="geometry" />
        </mxCell>
        <mxCell id="GPTz1_Q5hdU3rCjX2nhV-54" value="" style="line;strokeWidth=1;fillColor=none;align=left;verticalAlign=middle;spacingTop=-1;spacingLeft=3;spacingRight=3;rotatable=0;labelPosition=right;points=[];portConstraint=eastwest;" parent="GPTz1_Q5hdU3rCjX2nhV-52" vertex="1">
          <mxGeometry y="26" width="110" height="8" as="geometry" />
        </mxCell>
        <mxCell id="GPTz1_Q5hdU3rCjX2nhV-56" value="Extends" style="endArrow=block;endSize=16;endFill=0;html=1;strokeWidth=1;exitX=0.614;exitY=-0.083;exitDx=0;exitDy=0;exitPerimeter=0;" parent="WIyWlLk6GJQsqaUBKTNV-1" source="GPTz1_Q5hdU3rCjX2nhV-52" edge="1">
          <mxGeometry width="160" relative="1" as="geometry">
            <mxPoint x="875" y="705" as="sourcePoint" />
            <mxPoint x="920" y="600" as="targetPoint" />
          </mxGeometry>
        </mxCell>
        <mxCell id="GPTz1_Q5hdU3rCjX2nhV-57" value="Extends" style="endArrow=block;endSize=16;endFill=0;html=1;strokeWidth=1;exitX=0.5;exitY=0;exitDx=0;exitDy=0;" parent="WIyWlLk6GJQsqaUBKTNV-1" source="GPTz1_Q5hdU3rCjX2nhV-48" edge="1">
          <mxGeometry width="160" relative="1" as="geometry">
            <mxPoint x="1080" y="613" as="sourcePoint" />
            <mxPoint x="990" y="600" as="targetPoint" />
            <Array as="points" />
          </mxGeometry>
        </mxCell>
        <mxCell id="GPTz1_Q5hdU3rCjX2nhV-58" value="Extends" style="endArrow=block;endSize=16;endFill=0;html=1;strokeWidth=1;" parent="WIyWlLk6GJQsqaUBKTNV-1" edge="1">
          <mxGeometry width="160" relative="1" as="geometry">
            <mxPoint x="1140" y="720" as="sourcePoint" />
            <mxPoint x="1030" y="601" as="targetPoint" />
          </mxGeometry>
        </mxCell>
        <mxCell id="GPTz1_Q5hdU3rCjX2nhV-59" value="Peau de banane&#xa;" style="swimlane;fontStyle=1;align=center;verticalAlign=top;childLayout=stackLayout;horizontal=1;startSize=26;horizontalStack=0;resizeParent=1;resizeParentMax=0;resizeLast=0;collapsible=1;marginBottom=0;rounded=0;sketch=0;" parent="WIyWlLk6GJQsqaUBKTNV-1" vertex="1">
          <mxGeometry x="1480" y="720" width="100" height="34" as="geometry" />
        </mxCell>
        <mxCell id="GPTz1_Q5hdU3rCjX2nhV-61" value="" style="line;strokeWidth=1;fillColor=none;align=left;verticalAlign=middle;spacingTop=-1;spacingLeft=3;spacingRight=3;rotatable=0;labelPosition=right;points=[];portConstraint=eastwest;" parent="GPTz1_Q5hdU3rCjX2nhV-59" vertex="1">
          <mxGeometry y="26" width="100" height="8" as="geometry" />
        </mxCell>
        <mxCell id="GPTz1_Q5hdU3rCjX2nhV-64" value="Poussette&#xa;" style="swimlane;fontStyle=1;align=center;verticalAlign=top;childLayout=stackLayout;horizontal=1;startSize=20;horizontalStack=0;resizeParent=1;resizeParentMax=0;resizeLast=0;collapsible=1;marginBottom=0;rounded=0;sketch=0;" parent="WIyWlLk6GJQsqaUBKTNV-1" vertex="1">
          <mxGeometry x="1360" y="726" width="90" height="28" as="geometry" />
        </mxCell>
        <mxCell id="GPTz1_Q5hdU3rCjX2nhV-66" value="" style="line;strokeWidth=1;fillColor=none;align=left;verticalAlign=middle;spacingTop=-1;spacingLeft=3;spacingRight=3;rotatable=0;labelPosition=right;points=[];portConstraint=eastwest;" parent="GPTz1_Q5hdU3rCjX2nhV-64" vertex="1">
          <mxGeometry y="20" width="90" height="8" as="geometry" />
        </mxCell>
        <mxCell id="GPTz1_Q5hdU3rCjX2nhV-68" value="Dejection canin&#xa;" style="swimlane;fontStyle=1;align=center;verticalAlign=top;childLayout=stackLayout;horizontal=1;startSize=26;horizontalStack=0;resizeParent=1;resizeParentMax=0;resizeLast=0;collapsible=1;marginBottom=0;rounded=0;sketch=0;" parent="WIyWlLk6GJQsqaUBKTNV-1" vertex="1">
          <mxGeometry x="1240" y="720" width="100" height="34" as="geometry" />
        </mxCell>
        <mxCell id="GPTz1_Q5hdU3rCjX2nhV-70" value="" style="line;strokeWidth=1;fillColor=none;align=left;verticalAlign=middle;spacingTop=-1;spacingLeft=3;spacingRight=3;rotatable=0;labelPosition=right;points=[];portConstraint=eastwest;" parent="GPTz1_Q5hdU3rCjX2nhV-68" vertex="1">
          <mxGeometry y="26" width="100" height="8" as="geometry" />
        </mxCell>
        <mxCell id="GPTz1_Q5hdU3rCjX2nhV-72" value="Extends" style="endArrow=block;endSize=16;endFill=0;html=1;strokeWidth=1;entryX=0.369;entryY=0.434;entryDx=0;entryDy=0;entryPerimeter=0;" parent="WIyWlLk6GJQsqaUBKTNV-1" edge="1" target="GPTz1_Q5hdU3rCjX2nhV-38">
          <mxGeometry width="160" relative="1" as="geometry">
            <mxPoint x="1270" y="715" as="sourcePoint" />
            <mxPoint x="1280" y="550" as="targetPoint" />
          </mxGeometry>
        </mxCell>
        <mxCell id="GPTz1_Q5hdU3rCjX2nhV-73" value="Extends" style="endArrow=block;endSize=16;endFill=0;html=1;strokeWidth=1;exitX=0.5;exitY=0;exitDx=0;exitDy=0;" parent="WIyWlLk6GJQsqaUBKTNV-1" source="GPTz1_Q5hdU3rCjX2nhV-64" edge="1">
          <mxGeometry width="160" relative="1" as="geometry">
            <mxPoint x="1340" y="619" as="sourcePoint" />
            <mxPoint x="1330" y="550" as="targetPoint" />
          </mxGeometry>
        </mxCell>
        <mxCell id="GPTz1_Q5hdU3rCjX2nhV-74" value="Extends" style="endArrow=block;endSize=16;endFill=0;html=1;strokeWidth=1;exitX=0.37;exitY=-0.147;exitDx=0;exitDy=0;exitPerimeter=0;" parent="WIyWlLk6GJQsqaUBKTNV-1" source="GPTz1_Q5hdU3rCjX2nhV-59" edge="1">
          <mxGeometry width="160" relative="1" as="geometry">
            <mxPoint x="1340" y="619" as="sourcePoint" />
            <mxPoint x="1370" y="550" as="targetPoint" />
          </mxGeometry>
        </mxCell>
        <mxCell id="GPTz1_Q5hdU3rCjX2nhV-75" value="Extends" style="endArrow=block;endSize=16;endFill=0;html=1;strokeWidth=1;exitX=0.594;exitY=-0.147;exitDx=0;exitDy=0;exitPerimeter=0;" parent="WIyWlLk6GJQsqaUBKTNV-1" source="GPTz1_Q5hdU3rCjX2nhV-36" edge="1">
          <mxGeometry width="160" relative="1" as="geometry">
            <mxPoint x="1340" y="509" as="sourcePoint" />
            <mxPoint x="1180" y="420" as="targetPoint" />
            <Array as="points" />
          </mxGeometry>
        </mxCell>
        <mxCell id="GPTz1_Q5hdU3rCjX2nhV-77" value="Foret&#xa;" style="swimlane;fontStyle=1;align=center;verticalAlign=top;childLayout=stackLayout;horizontal=1;startSize=26;horizontalStack=0;resizeParent=1;resizeParentMax=0;resizeLast=0;collapsible=1;marginBottom=0;rounded=0;sketch=0;" parent="WIyWlLk6GJQsqaUBKTNV-1" vertex="1">
          <mxGeometry x="820" y="390" width="90" height="34" as="geometry" />
        </mxCell>
        <mxCell id="GPTz1_Q5hdU3rCjX2nhV-79" value="" style="line;strokeWidth=1;fillColor=none;align=left;verticalAlign=middle;spacingTop=-1;spacingLeft=3;spacingRight=3;rotatable=0;labelPosition=right;points=[];portConstraint=eastwest;" parent="GPTz1_Q5hdU3rCjX2nhV-77" vertex="1">
          <mxGeometry y="26" width="90" height="8" as="geometry" />
        </mxCell>
        <mxCell id="GPTz1_Q5hdU3rCjX2nhV-81" value="case grise&#xa;" style="swimlane;fontStyle=1;align=center;verticalAlign=top;childLayout=stackLayout;horizontal=1;startSize=26;horizontalStack=0;resizeParent=1;resizeParentMax=0;resizeLast=0;collapsible=1;marginBottom=0;rounded=0;sketch=0;" parent="WIyWlLk6GJQsqaUBKTNV-1" vertex="1">
          <mxGeometry x="710" y="390" width="90" height="34" as="geometry" />
        </mxCell>
        <mxCell id="GPTz1_Q5hdU3rCjX2nhV-83" value="" style="line;strokeWidth=1;fillColor=none;align=left;verticalAlign=middle;spacingTop=-1;spacingLeft=3;spacingRight=3;rotatable=0;labelPosition=right;points=[];portConstraint=eastwest;" parent="GPTz1_Q5hdU3rCjX2nhV-81" vertex="1">
          <mxGeometry y="26" width="90" height="8" as="geometry" />
        </mxCell>
        <mxCell id="GPTz1_Q5hdU3rCjX2nhV-85" value="Etendue d&#39;eau" style="swimlane;fontStyle=1;align=center;verticalAlign=top;childLayout=stackLayout;horizontal=1;startSize=26;horizontalStack=0;resizeParent=1;resizeParentMax=0;resizeLast=0;collapsible=1;marginBottom=0;rounded=0;sketch=0;" parent="WIyWlLk6GJQsqaUBKTNV-1" vertex="1">
          <mxGeometry x="590" y="390" width="100" height="34" as="geometry" />
        </mxCell>
        <mxCell id="GPTz1_Q5hdU3rCjX2nhV-87" value="" style="line;strokeWidth=1;fillColor=none;align=left;verticalAlign=middle;spacingTop=-1;spacingLeft=3;spacingRight=3;rotatable=0;labelPosition=right;points=[];portConstraint=eastwest;" parent="GPTz1_Q5hdU3rCjX2nhV-85" vertex="1">
          <mxGeometry y="26" width="100" height="8" as="geometry" />
        </mxCell>
        <mxCell id="GPTz1_Q5hdU3rCjX2nhV-89" value="Bar&#xa;" style="swimlane;fontStyle=1;align=center;verticalAlign=top;childLayout=stackLayout;horizontal=1;startSize=26;horizontalStack=0;resizeParent=1;resizeParentMax=0;resizeLast=0;collapsible=1;marginBottom=0;rounded=0;sketch=0;" parent="WIyWlLk6GJQsqaUBKTNV-1" vertex="1">
          <mxGeometry x="450" y="520" width="90" height="34" as="geometry" />
        </mxCell>
        <mxCell id="GPTz1_Q5hdU3rCjX2nhV-91" value="" style="line;strokeWidth=1;fillColor=none;align=left;verticalAlign=middle;spacingTop=-1;spacingLeft=3;spacingRight=3;rotatable=0;labelPosition=right;points=[];portConstraint=eastwest;" parent="GPTz1_Q5hdU3rCjX2nhV-89" vertex="1">
          <mxGeometry y="26" width="90" height="8" as="geometry" />
        </mxCell>
        <mxCell id="GPTz1_Q5hdU3rCjX2nhV-93" value="Bibliothèque&#xa;" style="swimlane;fontStyle=1;align=center;verticalAlign=top;childLayout=stackLayout;horizontal=1;startSize=26;horizontalStack=0;resizeParent=1;resizeParentMax=0;resizeLast=0;collapsible=1;marginBottom=0;rounded=0;sketch=0;" parent="WIyWlLk6GJQsqaUBKTNV-1" vertex="1">
          <mxGeometry x="330" y="520" width="100" height="34" as="geometry" />
        </mxCell>
        <mxCell id="GPTz1_Q5hdU3rCjX2nhV-95" value="" style="line;strokeWidth=1;fillColor=none;align=left;verticalAlign=middle;spacingTop=-1;spacingLeft=3;spacingRight=3;rotatable=0;labelPosition=right;points=[];portConstraint=eastwest;" parent="GPTz1_Q5hdU3rCjX2nhV-93" vertex="1">
          <mxGeometry y="26" width="100" height="8" as="geometry" />
        </mxCell>
        <mxCell id="GPTz1_Q5hdU3rCjX2nhV-97" value="Fast food&#xa;" style="swimlane;fontStyle=1;align=center;verticalAlign=top;childLayout=stackLayout;horizontal=1;startSize=26;horizontalStack=0;resizeParent=1;resizeParentMax=0;resizeLast=0;collapsible=1;marginBottom=0;rounded=0;sketch=0;" parent="WIyWlLk6GJQsqaUBKTNV-1" vertex="1">
          <mxGeometry x="200" y="520" width="110" height="34" as="geometry" />
        </mxCell>
        <mxCell id="GPTz1_Q5hdU3rCjX2nhV-99" value="" style="line;strokeWidth=1;fillColor=none;align=left;verticalAlign=middle;spacingTop=-1;spacingLeft=3;spacingRight=3;rotatable=0;labelPosition=right;points=[];portConstraint=eastwest;" parent="GPTz1_Q5hdU3rCjX2nhV-97" vertex="1">
          <mxGeometry y="26" width="110" height="8" as="geometry" />
        </mxCell>
        <mxCell id="GPTz1_Q5hdU3rCjX2nhV-101" value="université&#xa;" style="swimlane;fontStyle=1;align=center;verticalAlign=top;childLayout=stackLayout;horizontal=1;startSize=26;horizontalStack=0;resizeParent=1;resizeParentMax=0;resizeLast=0;collapsible=1;marginBottom=0;rounded=0;sketch=0;" parent="WIyWlLk6GJQsqaUBKTNV-1" vertex="1">
          <mxGeometry x="80" y="520" width="110" height="34" as="geometry" />
        </mxCell>
        <mxCell id="GPTz1_Q5hdU3rCjX2nhV-103" value="" style="line;strokeWidth=1;fillColor=none;align=left;verticalAlign=middle;spacingTop=-1;spacingLeft=3;spacingRight=3;rotatable=0;labelPosition=right;points=[];portConstraint=eastwest;" parent="GPTz1_Q5hdU3rCjX2nhV-101" vertex="1">
          <mxGeometry y="26" width="110" height="8" as="geometry" />
        </mxCell>
        <mxCell id="GPTz1_Q5hdU3rCjX2nhV-105" value="Maison&#xa;" style="swimlane;fontStyle=1;align=center;verticalAlign=top;childLayout=stackLayout;horizontal=1;startSize=26;horizontalStack=0;resizeParent=1;resizeParentMax=0;resizeLast=0;collapsible=1;marginBottom=0;rounded=0;sketch=0;" parent="WIyWlLk6GJQsqaUBKTNV-1" vertex="1">
          <mxGeometry x="-40" y="520" width="100" height="34" as="geometry" />
        </mxCell>
        <mxCell id="GPTz1_Q5hdU3rCjX2nhV-107" value="" style="line;strokeWidth=1;fillColor=none;align=left;verticalAlign=middle;spacingTop=-1;spacingLeft=3;spacingRight=3;rotatable=0;labelPosition=right;points=[];portConstraint=eastwest;" parent="GPTz1_Q5hdU3rCjX2nhV-105" vertex="1">
          <mxGeometry y="26" width="100" height="8" as="geometry" />
        </mxCell>
        <mxCell id="GPTz1_Q5hdU3rCjX2nhV-109" value="Extends" style="endArrow=block;endSize=16;endFill=0;html=1;strokeWidth=1;exitX=0.633;exitY=-0.059;exitDx=0;exitDy=0;exitPerimeter=0;" parent="WIyWlLk6GJQsqaUBKTNV-1" source="GPTz1_Q5hdU3rCjX2nhV-105" edge="1">
          <mxGeometry width="160" relative="1" as="geometry">
            <mxPoint x="-30" y="380" as="sourcePoint" />
            <mxPoint x="190" y="340" as="targetPoint" />
          </mxGeometry>
        </mxCell>
        <mxCell id="GPTz1_Q5hdU3rCjX2nhV-110" value="Extends" style="endArrow=block;endSize=16;endFill=0;html=1;strokeWidth=1;exitX=0.576;exitY=-0.059;exitDx=0;exitDy=0;exitPerimeter=0;" parent="WIyWlLk6GJQsqaUBKTNV-1" source="GPTz1_Q5hdU3rCjX2nhV-101" edge="1">
          <mxGeometry width="160" relative="1" as="geometry">
            <mxPoint x="-30" y="380" as="sourcePoint" />
            <mxPoint x="220" y="340" as="targetPoint" />
          </mxGeometry>
        </mxCell>
        <mxCell id="GPTz1_Q5hdU3rCjX2nhV-111" value="Extends" style="endArrow=block;endSize=16;endFill=0;html=1;strokeWidth=1;exitX=0.439;exitY=-0.01;exitDx=0;exitDy=0;exitPerimeter=0;" parent="WIyWlLk6GJQsqaUBKTNV-1" source="GPTz1_Q5hdU3rCjX2nhV-97" edge="1">
          <mxGeometry width="160" relative="1" as="geometry">
            <mxPoint x="-30" y="380" as="sourcePoint" />
            <mxPoint x="250" y="340" as="targetPoint" />
          </mxGeometry>
        </mxCell>
        <mxCell id="GPTz1_Q5hdU3rCjX2nhV-115" value="Extends" style="endArrow=block;endSize=16;endFill=0;html=1;strokeWidth=1;exitX=0.417;exitY=-0.108;exitDx=0;exitDy=0;exitPerimeter=0;" parent="WIyWlLk6GJQsqaUBKTNV-1" source="GPTz1_Q5hdU3rCjX2nhV-93" edge="1">
          <mxGeometry x="-0.0115" y="2" width="160" relative="1" as="geometry">
            <mxPoint x="290" y="430" as="sourcePoint" />
            <mxPoint x="270" y="340" as="targetPoint" />
            <mxPoint as="offset" />
          </mxGeometry>
        </mxCell>
        <mxCell id="GPTz1_Q5hdU3rCjX2nhV-116" value="Extends" style="endArrow=block;endSize=16;endFill=0;html=1;strokeWidth=1;exitX=0.417;exitY=-0.083;exitDx=0;exitDy=0;exitPerimeter=0;" parent="WIyWlLk6GJQsqaUBKTNV-1" source="GPTz1_Q5hdU3rCjX2nhV-89" edge="1">
          <mxGeometry width="160" relative="1" as="geometry">
            <mxPoint x="430" y="380" as="sourcePoint" />
            <mxPoint x="290" y="340" as="targetPoint" />
          </mxGeometry>
        </mxCell>
        <mxCell id="GPTz1_Q5hdU3rCjX2nhV-117" value="Extends" style="endArrow=block;endSize=16;endFill=0;html=1;strokeWidth=1;exitX=0.5;exitY=0;exitDx=0;exitDy=0;" parent="WIyWlLk6GJQsqaUBKTNV-1" source="GPTz1_Q5hdU3rCjX2nhV-85" edge="1">
          <mxGeometry width="160" relative="1" as="geometry">
            <mxPoint x="720" y="430" as="sourcePoint" />
            <mxPoint x="910" y="250" as="targetPoint" />
          </mxGeometry>
        </mxCell>
        <mxCell id="GPTz1_Q5hdU3rCjX2nhV-118" value="Extends" style="endArrow=block;endSize=16;endFill=0;html=1;strokeWidth=1;exitX=0.408;exitY=-0.046;exitDx=0;exitDy=0;exitPerimeter=0;" parent="WIyWlLk6GJQsqaUBKTNV-1" source="GPTz1_Q5hdU3rCjX2nhV-81" edge="1">
          <mxGeometry width="160" relative="1" as="geometry">
            <mxPoint x="720" y="430" as="sourcePoint" />
            <mxPoint x="940" y="250" as="targetPoint" />
          </mxGeometry>
        </mxCell>
        <mxCell id="GPTz1_Q5hdU3rCjX2nhV-119" value="Extends" style="endArrow=block;endSize=16;endFill=0;html=1;strokeWidth=1;exitX=0.5;exitY=0;exitDx=0;exitDy=0;" parent="WIyWlLk6GJQsqaUBKTNV-1" target="GPTz1_Q5hdU3rCjX2nhV-21" edge="1" source="GPTz1_Q5hdU3rCjX2nhV-77">
          <mxGeometry width="160" relative="1" as="geometry">
            <mxPoint x="950" y="360" as="sourcePoint" />
            <mxPoint x="880" y="430" as="targetPoint" />
          </mxGeometry>
        </mxCell>
        <mxCell id="a1f80Z0c94bu8utSyrlj-0" value="Extends" style="endArrow=block;endSize=16;endFill=0;html=1;exitX=0.371;exitY=-0.034;exitDx=0;exitDy=0;exitPerimeter=0;" edge="1" parent="WIyWlLk6GJQsqaUBKTNV-1" source="GPTz1_Q5hdU3rCjX2nhV-11">
          <mxGeometry width="160" relative="1" as="geometry">
            <mxPoint x="760" y="380" as="sourcePoint" />
            <mxPoint x="990" y="240" as="targetPoint" />
          </mxGeometry>
        </mxCell>
        <mxCell id="a1f80Z0c94bu8utSyrlj-2" value="Extends" style="endArrow=block;endSize=16;endFill=0;html=1;entryX=0.5;entryY=1;entryDx=0;entryDy=0;exitX=0.406;exitY=0.088;exitDx=0;exitDy=0;exitPerimeter=0;" edge="1" parent="WIyWlLk6GJQsqaUBKTNV-1" source="GPTz1_Q5hdU3rCjX2nhV-40" target="GPTz1_Q5hdU3rCjX2nhV-11">
          <mxGeometry width="160" relative="1" as="geometry">
            <mxPoint x="760" y="560" as="sourcePoint" />
            <mxPoint x="920" y="560" as="targetPoint" />
          </mxGeometry>
        </mxCell>
        <mxCell id="a1f80Z0c94bu8utSyrlj-4" value="Extends" style="endArrow=block;endSize=16;endFill=0;html=1;exitX=0.373;exitY=-0.124;exitDx=0;exitDy=0;exitPerimeter=0;" edge="1" parent="WIyWlLk6GJQsqaUBKTNV-1" source="GPTz1_Q5hdU3rCjX2nhV-23">
          <mxGeometry width="160" relative="1" as="geometry">
            <mxPoint x="870" y="360" as="sourcePoint" />
            <mxPoint x="1020" y="244" as="targetPoint" />
          </mxGeometry>
        </mxCell>
        <mxCell id="a1f80Z0c94bu8utSyrlj-5" value="Ville" style="swimlane;fontStyle=1;align=center;verticalAlign=top;childLayout=stackLayout;horizontal=1;startSize=26;horizontalStack=0;resizeParent=1;resizeParentMax=0;resizeLast=0;collapsible=1;marginBottom=0;" vertex="1" parent="WIyWlLk6GJQsqaUBKTNV-1">
          <mxGeometry x="20" y="30" width="160" height="34" as="geometry">
            <mxRectangle x="20" y="30" width="60" height="26" as="alternateBounds" />
          </mxGeometry>
        </mxCell>
        <mxCell id="a1f80Z0c94bu8utSyrlj-7" value="" style="line;strokeWidth=1;fillColor=none;align=left;verticalAlign=middle;spacingTop=-1;spacingLeft=3;spacingRight=3;rotatable=0;labelPosition=right;points=[];portConstraint=eastwest;" vertex="1" parent="a1f80Z0c94bu8utSyrlj-5">
          <mxGeometry y="26" width="160" height="8" as="geometry" />
        </mxCell>
      </root>
    </mxGraphModel>
  </diagram>
</mxfile>
